<svg xmlns="http://www.w3.org/2000/svg" width="1024" height="1024" viewBox="0 0 1024 1024">
  <defs>
    <radialGradient id="glow" cx="50%" cy="42%" r="75%">
      <stop offset="0%" stop-color="#1A1025"/>
      <stop offset="60%" stop-color="#1A1025" stop-opacity="0.55"/>
      <stop offset="100%" stop-color="#0A0A0F"/>
    </radialGradient>
    <radialGradient id="tint" cx="50%" cy="88%" r="80%">
      <stop offset="0%" stop-color="#261C08" stop-opacity="0.9"/>
      <stop offset="55%" stop-color="#261C08" stop-opacity="0.35"/>
      <stop offset="100%" stop-color="#261C08" stop-opacity="0"/>
    </radialGradient>
  </defs>

  <rect width="1024" height="1024" fill="#0A0A0F"/>
  <rect width="1024" height="1024" fill="url(#glow)"/>
  <rect width="1024" height="1024" fill="url(#tint)"/>

  <!-- booth frame -->
  <rect x="26" y="26" width="972" height="972" fill="none"
        stroke="#FBBF24" stroke-opacity="0.28" stroke-width="2" rx="18"/>

  <!-- wordmark + ON AIR lamp -->
  <text x="96" y="132" font-family="JetBrains Mono, monospace" font-size="30"
        letter-spacing="8" fill="#8888A0">REPO RADIO · 102.3 FM</text>
  <circle cx="896" cy="122" r="10" fill="#FBBF24"/>
  <circle cx="896" cy="122" r="18" fill="#FBBF24" fill-opacity="0.25"/>

  <!-- episode label -->
  <text x="96" y="236" font-family="JetBrains Mono, monospace" font-size="44"
        letter-spacing="10" fill="#FFB020">EP-000</text>

  <!-- repo name (display serif) -->
  <text x="96" y="340" font-family="Hedvig Letters Serif, serif" font-size="64"
        fill="#EDEDF2">cavemanlabs/caveman</text>

  <!-- waveform from real audio.peaks -->
  <g opacity="0.95"><rect x="99.3" y="527.2" width="10.7" height="65.5" rx="5.4" fill="#FFB020"/><rect x="116.6" y="509.5" width="10.7" height="101.0" rx="5.4" fill="#FFB020"/><rect x="134.0" y="494.0" width="10.7" height="131.9" rx="5.4" fill="#FFB020"/><rect x="151.3" y="501.1" width="10.7" height="117.8" rx="5.4" fill="#FFB020"/><rect x="168.6" y="520.4" width="10.7" height="79.2" rx="5.4" fill="#FFB020"/><rect x="186.0" y="519.0" width="10.7" height="82.0" rx="5.4" fill="#FFB020"/><rect x="203.3" y="495.9" width="10.7" height="128.3" rx="5.4" fill="#FFB020"/><rect x="220.6" y="494.8" width="10.7" height="130.4" rx="5.4" fill="#FFB020"/><rect x="238.0" y="507.3" width="10.7" height="105.4" rx="5.4" fill="#FFB020"/><rect x="255.3" y="531.7" width="10.7" height="56.6" rx="5.4" fill="#FFB020"/><rect x="272.6" y="520.9" width="10.7" height="78.2" rx="5.4" fill="#FFB020"/><rect x="290.0" y="498.6" width="10.7" height="122.7" rx="5.4" fill="#FFB020"/><rect x="307.3" y="492.9" width="10.7" height="134.1" rx="5.4" fill="#FFB020"/><rect x="324.6" y="504.4" width="10.7" height="111.1" rx="5.4" fill="#FFB020"/><rect x="342.0" y="525.4" width="10.7" height="69.2" rx="5.4" fill="#FFB020"/><rect x="359.3" y="508.9" width="10.7" height="102.3" rx="5.4" fill="#FFB020"/><rect x="376.6" y="495.3" width="10.7" height="129.3" rx="5.4" fill="#FFB020"/><rect x="394.0" y="499.0" width="10.7" height="122.0" rx="5.4" fill="#FFB020"/><rect x="411.3" y="516.5" width="10.7" height="87.0" rx="5.4" fill="#FFB020"/><rect x="428.6" y="531.6" width="10.7" height="56.8" rx="5.4" fill="#FFB020"/><rect x="446.0" y="510.6" width="10.7" height="98.9" rx="5.4" fill="#FFB020"/><rect x="463.3" y="492.6" width="10.7" height="134.9" rx="5.4" fill="#FFB020"/><rect x="480.6" y="494.3" width="10.7" height="131.5" rx="5.4" fill="#FFB020"/><rect x="498.0" y="513.6" width="10.7" height="92.8" rx="5.4" fill="#FFB020"/><rect x="515.3" y="524.2" width="10.7" height="71.5" rx="5.4" fill="#FFB020"/><rect x="532.6" y="503.8" width="10.7" height="112.4" rx="5.4" fill="#FFB020"/><rect x="550.0" y="498.4" width="10.7" height="123.3" rx="5.4" fill="#FFB020"/><rect x="567.3" y="505.3" width="10.7" height="109.3" rx="5.4" fill="#FFB020"/><rect x="584.6" y="518.6" width="10.7" height="82.9" rx="5.4" fill="#FFB020"/><rect x="602.0" y="527.2" width="10.7" height="65.6" rx="5.4" fill="#FFB020"/><rect x="619.3" y="500.3" width="10.7" height="119.4" rx="5.4" fill="#FFB020"/><rect x="636.6" y="491.8" width="10.7" height="136.3" rx="5.4" fill="#FFB020"/><rect x="654.0" y="499.1" width="10.7" height="121.8" rx="5.4" fill="#FFB020"/><rect x="671.3" y="526.2" width="10.7" height="67.5" rx="5.4" fill="#FFB020"/><rect x="688.6" y="518.5" width="10.7" height="83.0" rx="5.4" fill="#FFB020"/><rect x="706.0" y="505.3" width="10.7" height="109.4" rx="5.4" fill="#FFB020"/><rect x="723.3" y="501.2" width="10.7" height="117.6" rx="5.4" fill="#FFB020"/><rect x="740.6" y="503.8" width="10.7" height="112.4" rx="5.4" fill="#FFB020"/><rect x="758.0" y="524.8" width="10.7" height="70.3" rx="5.4" fill="#FFB020"/><rect x="775.3" y="514.6" width="10.7" height="90.7" rx="5.4" fill="#FFB020"/><rect x="792.6" y="496.4" width="10.7" height="127.2" rx="5.4" fill="#FFB020"/><rect x="810.0" y="491.2" width="10.7" height="137.6" rx="5.4" fill="#FFB020"/><rect x="827.3" y="510.6" width="10.7" height="98.8" rx="5.4" fill="#FFB020"/><rect x="844.6" y="530.4" width="10.7" height="59.2" rx="5.4" fill="#FFB020"/><rect x="862.0" y="516.6" width="10.7" height="86.9" rx="5.4" fill="#FFB020"/><rect x="879.3" y="501.6" width="10.7" height="116.7" rx="5.4" fill="#FFB020"/><rect x="896.6" y="495.1" width="10.7" height="129.9" rx="5.4" fill="#FFB020"/><rect x="914.0" y="509.3" width="10.7" height="101.5" rx="5.4" fill="#FFB020"/></g>
  <line x1="96" y1="560" x2="928" y2="560"
        stroke="#FFB020" stroke-opacity="0.18" stroke-width="2"/>

  <!-- verdict badge -->
  <g transform="translate(96, 800)">
    <rect x="0" y="0" width="210" height="76" rx="38"
          fill="#261C08" stroke="#FBBF24" stroke-width="2.5"/>
    <text x="105" y="51" text-anchor="middle"
          font-family="JetBrains Mono, monospace" font-size="34"
          letter-spacing="6" fill="#FBBF24">MIXED</text>
  </g>

  <!-- footer freq ticks -->
  <g stroke="#8888A0" stroke-opacity="0.35" stroke-width="2">
    <line x1="96" y1="940" x2="96" y2="914"/><line x1="138" y1="940" x2="138" y2="926"/><line x1="180" y1="940" x2="180" y2="926"/><line x1="222" y1="940" x2="222" y2="926"/><line x1="264" y1="940" x2="264" y2="926"/><line x1="306" y1="940" x2="306" y2="914"/><line x1="348" y1="940" x2="348" y2="926"/><line x1="390" y1="940" x2="390" y2="926"/><line x1="432" y1="940" x2="432" y2="926"/><line x1="474" y1="940" x2="474" y2="926"/><line x1="516" y1="940" x2="516" y2="914"/><line x1="558" y1="940" x2="558" y2="926"/><line x1="600" y1="940" x2="600" y2="926"/><line x1="642" y1="940" x2="642" y2="926"/><line x1="684" y1="940" x2="684" y2="926"/><line x1="726" y1="940" x2="726" y2="914"/><line x1="768" y1="940" x2="768" y2="926"/><line x1="810" y1="940" x2="810" y2="926"/><line x1="852" y1="940" x2="852" y2="926"/><line x1="894" y1="940" x2="894" y2="926"/>
  </g>
</svg>
